<svg width="310" height="950" viewBox="0 0 310 950" fill="none" xmlns="http://www.w3.org/2000/svg">
<path opacity="0.3" d="M-380.669 828.271L-380.587 827.966C-360.046 820.397 -339.16 813.174 -318.344 805.973C-249.641 782.214 -181.692 758.717 -129.44 723.876C-8.96044 643.541 28.0503 502.821 -201.451 159.422L-201.363 159.091C28.3988 502.806 -8.66319 643.654 -129.279 724.083C-181.559 758.941 -249.523 782.447 -318.242 806.211C-339.12 813.431 -360.07 820.676 -380.669 828.271ZM-383.446 838.633L-383.361 838.318C-358.99 828.167 -333.934 818.534 -308.913 808.91C-239.442 782.207 -170.193 755.589 -116.56 718.182C9.21483 630.452 49.1058 483.301 -195.285 136.376L-195.198 136.052C49.4558 483.28 9.52029 630.566 -116.394 718.386C-170.055 755.813 -239.316 782.436 -308.801 809.145C-333.896 818.792 -359.016 828.451 -383.446 838.633ZM-386.715 850.836L-386.627 850.508C-358.623 837.471 -329.407 825.137 -300.127 812.774C-229.508 782.964 -158.507 752.989 -103.257 712.594C27.492 616.999 70.0001 462.949 -189.387 114.399L-189.302 114.078C70.3618 462.924 27.7902 617.101 -103.086 712.795C-158.36 753.207 -229.375 783.187 -300.008 813.007C-329.365 825.397 -358.651 837.762 -386.715 850.836ZM-390.482 864.894L-390.392 864.556C-359.023 848.382 -325.679 833.08 -292.112 817.668C-219.872 784.509 -146.53 750.845 -89.3636 706.921C45.8804 603.013 90.5731 441.609 -183.793 93.5197L-183.71 93.2095C90.9259 441.578 46.1823 603.117 -89.1891 707.124C-146.38 751.062 -219.732 784.734 -291.987 817.9C-325.637 833.341 -359.05 848.681 -390.482 864.894ZM-386.265 876.055L-386.628 875.957C-354.493 858.116 -319.958 841.024 -284.983 823.718C-210.55 786.885 -134.131 749.07 -74.6716 700.938C64.4423 588.325 110.665 419.135 -178.502 73.7745L-178.42 73.4695C111.023 419.092 64.7427 588.411 -74.4898 701.13C-133.973 749.283 -210.405 787.104 -284.843 823.943C-319.742 841.208 -354.198 858.259 -386.268 876.063L-386.265 876.055ZM-369.343 880.589L-369.7 880.493C-340.893 863.895 -310.147 847.624 -278.895 831.078C-201.6 790.158 -121.168 747.575 -58.9661 694.363C83.2385 572.707 130.106 395.413 -173.531 55.2226L-173.452 54.9265C130.464 395.362 83.551 572.795 -58.7815 694.552C-121.003 747.781 -201.446 790.37 -278.749 831.301C-309.928 847.803 -340.59 864.037 -369.355 880.595L-369.343 880.589ZM-352.376 885.135L-352.728 885.041C-327.644 870.086 -301.108 855.159 -274.05 839.938C-193.12 794.414 -107.512 746.257 -42.046 686.876C102.3 555.942 148.686 370.357 -168.894 37.9151L-168.816 37.6241C149.038 370.292 102.613 556.014 -41.8556 687.058C-107.332 746.463 -192.962 794.623 -273.904 840.154C-300.888 855.336 -327.353 870.221 -352.378 885.144L-352.376 885.135ZM-335.369 889.692L-335.716 889.599C-314.865 876.758 -293.018 863.786 -270.707 850.536C-185.297 799.81 -93.0518 745.035 -23.7325 678.114C121.656 537.756 166.19 343.928 -164.605 21.9078L-164.529 21.6257C166.545 343.865 121.966 537.824 -23.5347 678.293C-92.8739 745.233 -185.128 800.019 -270.556 850.749C-292.798 863.957 -314.579 876.891 -335.371 889.701L-335.369 889.692ZM-318.323 894.26L-318.666 894.168C-302.686 884.019 -286.127 873.701 -269.223 863.171C-178.417 806.603 -77.6991 743.86 -3.8866 667.694C141.274 517.905 182.343 316.167 -160.692 7.30612L-160.618 7.02923C182.695 316.085 141.585 517.966 -3.68305 667.867C-77.5178 744.053 -178.249 806.806 -269.067 863.381C-285.904 873.872 -302.401 884.147 -318.326 894.268L-318.323 894.26ZM-301.242 898.836L-301.581 898.746C-291.302 892.022 -280.804 885.189 -270.087 878.247C-172.999 815.207 -61.4195 742.76 17.5729 655.209C160.109 497.236 196.477 290.066 -149.831 0.261219L-149.243 0.418716C196.796 290.175 160.351 497.367 17.7822 655.376C-61.2324 742.947 -172.827 815.407 -269.929 878.457C-280.563 885.362 -291.001 892.158 -301.245 898.845L-301.242 898.836ZM-284.13 903.422L-284.465 903.332L-274.038 896.321C-169.898 826.339 -44.2398 741.89 40.6614 640.257C176.692 477.418 208.043 270.395 -121.272 7.90415L-120.653 8.07006C208.351 270.519 176.932 477.557 40.8805 640.419C-44.0482 742.084 -169.719 826.535 -273.877 896.528L-284.13 903.422ZM-266.988 908.015L-267.321 907.925C-158.068 832.48 -22.2941 736.485 65.3164 622.453C193.095 456.14 218.349 251.434 -90.6315 16.1237L-89.9928 16.2949C218.646 251.57 193.33 456.273 65.5379 622.606C-22.0529 736.612 -157.756 832.577 -266.991 908.023L-266.988 908.015ZM-249.817 912.616L-250.148 912.527C-137.014 832.396 4.32477 725.616 91.3809 601.45C209.137 433.502 227.505 233.712 -57.533 24.9831L-56.859 25.1637C227.813 233.872 209.367 433.64 91.6105 601.589C4.56288 725.73 -136.697 832.491 -249.819 912.624L-249.817 912.616ZM-232.624 917.222L-232.95 917.135C-104.28 823.759 60.532 689.949 140.87 538.793C224.791 380.896 216.477 204.068 -21.5159 34.6432L-20.8205 34.8296C216.786 204.234 225.023 381.026 141.114 538.911C60.7842 690.05 -103.957 823.837 -232.627 917.231L-232.624 917.222ZM-215.406 921.836L-215.73 921.749C-86.8088 825.993 78.0439 683.623 158.253 527.384C239.299 369.511 233.884 197.483 17.5717 45.1167L18.2711 45.3041C234.182 197.674 239.528 369.661 158.488 527.509C78.2998 683.718 -86.4862 826.067 -215.409 921.845L-215.406 921.836ZM-198.165 926.456L-198.488 926.369C-69.6211 828.503 94.7777 678.022 175.06 517.131C206.357 454.403 224.872 390.095 223.502 326.711C222.132 263.326 200.882 200.876 152.66 141.842C128.591 112.378 97.8049 83.7679 59.416 56.3289L60.1096 56.5147C98.2675 83.8599 128.901 112.358 152.87 141.701C201.129 200.782 222.397 263.292 223.769 326.724C225.141 390.156 206.619 454.493 175.302 517.252C95.0346 678.114 -69.3019 828.573 -198.167 926.465L-198.165 926.456ZM-180.901 931.082L-181.221 930.996C-45.9518 826.047 128.054 656.452 203.311 481.996C229.122 422.155 243.319 361.743 240.344 303.175C237.368 244.606 217.227 187.894 174.372 135.421C155.265 112.031 131.642 89.4873 103.015 67.9999L103.675 68.1768C132.099 89.5667 155.571 112.002 174.586 135.273C217.478 187.785 237.636 244.554 240.615 303.167C243.593 361.779 229.389 422.217 203.563 482.089C128.311 656.536 -45.6294 826.105 -180.904 931.09L-180.901 931.082ZM-163.617 935.713L-163.936 935.628C-67.1272 858.961 49.2953 745.765 135.291 621.942C199.54 529.421 246.806 430.979 256.191 337.425C265.576 243.872 237.089 155.24 149.86 82.2894C148.83 81.4311 147.794 80.575 146.751 79.7209L147.339 79.8784C148.238 80.6201 149.134 81.361 150.026 82.101C237.332 155.116 265.841 243.84 256.452 337.454C247.064 431.068 199.786 529.53 135.511 622.08C49.5493 745.867 -66.8236 859.035 -163.619 935.722L-163.617 935.713ZM-146.318 940.348L-146.634 940.264C-44.6757 857.899 78.7899 731.224 165.703 595.145C224.878 502.495 267.106 405.495 274.051 315.178C280.458 231.886 256.851 154.277 188.86 90.9964L189.385 91.1371C257.183 154.42 280.71 231.978 274.318 315.208C267.369 405.571 225.131 502.602 165.936 595.281C79.0468 731.323 -44.372 857.981 -146.32 940.357L-146.318 940.348ZM-129 944.989L-129.316 944.904C-22.1337 856.665 108.535 715.233 195.712 566.578C249.8 474.351 287.144 379.35 291.742 292.563C295.519 221.303 277.207 155.584 227.966 101.482L228.424 101.605C277.524 155.709 295.785 221.384 292.013 292.586C287.412 379.413 250.055 474.449 195.95 566.707C108.794 715.323 -21.8258 856.723 -129.002 944.997L-129 944.989ZM-111.668 949.633L-111.98 949.549C0.375949 855.331 138.232 698.032 224.972 536.798C274.097 445.487 306.827 352.92 309.241 269.851C310.951 210.81 297.346 156.57 263.434 110.995L263.838 111.103C297.653 156.684 311.228 210.89 309.507 269.877C307.093 352.986 274.354 445.586 225.213 536.926C138.494 698.111 0.691601 855.384 -111.671 949.641L-111.668 949.633ZM-207.805 183.133C7.27095 521.647 -26.8279 656.5 -141.926 730.011C-193.005 762.637 -260.02 783.184 -328.271 804.11C-344.972 809.229 -361.744 814.375 -378.378 819.722L-378.299 819.426C-361.723 814.101 -345.006 808.972 -328.364 803.869C-260.129 782.948 -193.13 762.407 -142.084 729.801C-27.1204 656.369 6.92622 521.656 -207.896 183.473L-207.805 183.133Z" fill="#C6C6C6"/>
</svg>
