<svg width="1440" height="386" viewBox="0 0 1440 386" fill="none" xmlns="http://www.w3.org/2000/svg">
<path opacity="0.6" d="M75.5787 385.994L76.0797 385.994C96.1241 373.043 115.78 359.786 135.372 346.574C200.027 302.965 263.97 259.835 338.858 229.812C511.531 160.587 742.497 161.074 1174.73 385.994L1175.28 385.994C742.664 160.833 511.479 160.358 338.607 229.661C263.682 259.7 199.719 302.838 135.05 346.458C115.403 359.71 95.6865 373.008 75.5787 385.994ZM58.5494 385.994L59.068 385.994C84.6448 370.848 109.709 355.125 134.744 339.425C204.229 295.831 273.491 252.377 352.88 221.869C539.066 150.326 781.077 150.003 1212.6 386L1213.13 386C781.252 149.762 539.017 150.091 352.635 221.715C273.203 252.239 203.929 295.7 134.43 339.303C109.329 355.05 84.1982 370.813 58.5494 385.994ZM38.4963 385.994L39.035 385.994C70.5301 368.847 101.443 350.721 132.429 332.554C207.149 288.74 282.278 244.689 366.914 213.61C567.203 140.062 820.866 139.201 1248.72 385.994L1249.25 385.994C821.053 138.953 567.168 139.834 366.675 213.453C282.004 244.545 206.861 288.605 132.12 332.428C101.063 350.643 70.0721 368.812 38.4963 385.994ZM15.3934 385.994L15.9492 385.994C53.6362 367.082 90.7962 346.624 128.218 326.03C208.739 281.709 290.486 236.712 381.32 204.954C596.201 129.82 862.038 128.809 1283.03 385.994L1283.54 385.994C862.231 128.568 596.167 129.589 381.08 204.794C290.215 236.567 208.451 281.57 127.913 325.9C90.4131 346.546 53.1669 367.045 15.3934 385.994ZM0.0143966 380.952L0.0143967 381.224C40.5727 362.088 80.967 341.132 121.871 319.909C208.926 274.743 298.302 228.371 396.529 195.798C626.348 119.588 904.75 118.966 1315.48 385.994L1315.98 385.994C904.963 118.724 626.34 119.361 396.31 195.635C298.04 228.221 208.649 274.6 121.583 319.769C80.774 340.947 40.475 361.855 0.000114399 380.952L0.0143966 380.952ZM0.0143945 368.264L0.0143945 368.532C37.2982 351.491 74.8788 333.032 113.087 314.271C207.584 267.868 305.92 219.583 413.062 186.043C658.016 109.366 949.11 109.813 1345.97 385.994L1346.45 385.994C949.335 109.572 658.011 109.131 412.849 185.879C305.672 219.429 207.322 267.721 112.805 314.127C74.6944 332.845 37.2062 351.253 0.000112241 368.271L0.0143945 368.264ZM0.0143923 355.542L0.0143923 355.807C33.249 341.062 67.0396 325.296 101.492 309.22C204.543 261.138 313.552 210.277 431.494 175.61C691.553 99.1737 995.16 101.511 1374.41 385.994L1374.89 385.994C995.405 101.277 691.571 98.9417 431.293 175.442C313.31 210.112 204.286 260.988 101.222 309.078C66.8583 325.109 33.1627 340.833 0.000110076 355.542L0.0143923 355.542ZM0.0143901 342.791L0.0143902 343.051C28.2695 330.871 57.1354 318.02 86.6174 304.895C199.482 254.654 321.365 200.39 452.451 164.441C727.388 89.0417 1042.88 94.2201 1400.71 385.994L1401.18 385.994C1043.12 93.9836 727.412 88.8126 452.259 164.269C321.134 200.228 199.232 254.497 86.3524 304.75C56.9625 317.833 28.1833 330.646 0.000107907 342.791L0.0143901 342.791ZM0.014388 330.01L0.014388 330.267C22.1411 320.99 44.7632 311.34 67.8546 301.488C191.894 248.567 329.475 189.87 476.583 152.511C765.885 79.039 1092.08 88.1236 1424.71 385.994L1425.17 385.994C1092.35 87.8929 765.919 78.8098 476.401 152.336C329.253 189.707 191.652 248.412 67.5954 301.34C44.5932 311.152 22.0605 320.767 0.000105732 330.01L0.014388 330.01ZM0.0143858 317.203L0.0143858 317.457C14.5466 311.526 29.3363 305.463 44.383 299.267C180.927 243.164 337.85 178.688 504.541 139.839C805.314 69.7369 1137.9 83.1288 1439.97 379.717L1439.97 379.276C1137.87 82.885 805.213 69.543 504.371 139.661C337.639 178.522 180.691 243.007 44.1268 299.117C29.1703 305.262 14.4613 311.29 0.000103554 317.203L0.0143858 317.203ZM0.0143836 304.372L0.0143836 304.623L15.0478 298.643C165.133 238.908 346.242 166.832 536.952 126.489C842.514 61.8511 1172.82 78.7246 1439.99 358.305L1439.99 357.841C1172.75 78.4866 842.399 61.6572 536.793 126.306C346.023 166.662 164.906 238.747 14.7972 298.492L0.0143836 304.372ZM0.0143814 291.519L0.0143815 291.769C160.577 229.482 363.544 152.493 574.38 112.579C881.878 54.3648 1206.12 75.0695 1439.97 335.329L1439.97 334.851C1206.04 74.836 881.771 54.1753 574.236 112.395C363.449 152.301 160.557 229.245 9.91844e-05 291.519L0.0143814 291.519ZM0.0143792 278.645L0.0143793 278.893C169.355 214.769 391.146 135.909 617.291 98.282C923.179 47.3853 1237.06 71.986 1439.99 310.514L1439.99 310.009C1236.94 71.7407 923.061 47.1988 617.173 98.0955C391.068 135.721 169.341 214.529 9.69941e-05 278.645L0.0143792 278.645ZM0.014377 265.754L0.0143771 265.998C196.047 193.488 468.925 103.274 733.693 75.406C1010.27 46.2953 1277.98 85.2574 1439.97 283.507L1439.97 282.986C1277.85 85.0106 1010.16 46.1087 733.612 75.2136C468.873 103.079 196.061 193.247 9.48011e-05 265.754L0.014377 265.754ZM0.0143748 252.844L0.0143749 253.086C199.799 180.847 485.818 92.209 758.328 65.3841C1033.69 38.2801 1295.23 74.3145 1439.97 254.2L1439.97 253.675C1295.06 74.0706 1033.55 38.0921 758.233 65.1961C485.778 92.0122 199.82 180.608 9.26049e-05 252.844L0.0143748 252.844ZM0.0143726 239.916L0.0143727 240.159C203.013 168.353 501.281 81.5525 780.953 55.5488C889.99 45.4124 996.197 44.5148 1092.82 57.3543C1189.44 70.1938 1276.47 96.766 1347.17 141.566C1382.46 163.927 1413.67 190.826 1439.97 222.825L1439.97 222.305C1413.72 190.486 1382.61 163.714 1347.47 141.446C1276.71 96.6103 1189.6 70.0145 1092.91 57.1647C996.214 44.315 889.959 45.2126 780.866 55.3564C501.246 81.3557 203.036 168.116 9.04056e-05 239.916L0.0143726 239.916ZM0.0143704 226.972L0.0143705 227.212C216.503 152.255 548.025 62.3168 846.431 42.3715C948.787 35.5316 1047.25 36.9242 1135.83 49.984C1224.4 63.0439 1303.08 87.7651 1365.93 127.581C1393.95 145.331 1418.81 166.083 1439.99 190.137L1439.99 189.642C1418.87 165.748 1394.12 145.123 1366.25 127.459C1303.36 87.6093 1224.59 62.8662 1135.95 49.796C1047.3 36.7259 948.802 35.3333 846.391 42.1776C548.002 62.1214 216.546 152.018 8.82036e-05 226.972L0.0143704 226.972ZM0.0143682 214.012L0.0143683 214.252C157.337 160.899 378.728 100.672 603.911 63.7226C772.166 36.1192 942.524 21.5065 1089.82 32.4774C1237.12 43.4482 1361.31 79.9909 1437.33 154.688C1438.22 155.569 1439.11 156.454 1439.99 157.344L1439.99 156.903C1439.22 156.135 1438.45 155.37 1437.68 154.607C1361.6 79.844 1237.28 43.2691 1089.88 32.2894C942.492 21.3097 772.1 35.9268 603.79 63.5434C378.676 100.475 157.349 160.673 8.59989e-05 214.012L0.0143682 214.012ZM0.014366 201.042L0.0143661 201.279C168.189 145.392 413.14 82.7645 657.492 47.4705C823.861 23.4413 989.936 12.0825 1131.27 24.1537C1261.61 35.2847 1370.91 66.3463 1440 125.772L1440 125.379C1370.82 66.0878 1261.57 35.0909 1131.33 23.9613C989.927 11.8843 823.8 23.2445 657.38 47.2825C413.094 82.5662 168.189 145.164 8.37924e-05 201.042L0.014366 201.042ZM0.0143638 188.057L0.0143638 188.294C179.343 129.853 449.88 64.9537 713.622 31.8325C877.252 11.2819 1038.26 2.96564 1173.21 16.0167C1284.02 26.7319 1377.27 51.8615 1439.99 96.4501L1439.99 96.1063C1377.21 51.6162 1284.01 26.5307 1173.29 15.8228C1038.27 2.76587 877.206 11.0851 713.522 31.6415C449.848 64.7554 179.381 129.627 8.15834e-05 188.057L0.0143638 188.057ZM0.0143616 175.062L0.0143616 175.296C190.635 114.356 488.454 47.403 771.305 16.9451C931.49 -0.304455 1086.87 -5.85011 1215.23 8.0324C1306.45 17.9029 1384.03 37.5882 1439.97 69.8544L1439.97 69.5518C1383.98 37.3517 1306.45 17.6943 1215.29 7.84142C1086.88 -6.04844 931.444 -0.502784 771.207 16.7527C488.439 47.2046 190.684 114.126 7.93726e-05 175.062L0.0143616 175.062ZM1135.77 385.994C705.095 172.081 484.321 170.658 324.323 237.397C253.312 267.014 194.276 310.044 134.151 353.867C119.44 364.592 104.66 375.36 89.6269 385.994L90.1136 385.994C105.089 375.396 119.82 364.663 134.482 353.978C194.592 310.165 253.614 267.145 324.579 237.547C484.402 170.887 704.939 172.321 1135.21 385.994L1135.77 385.994Z" fill="#C6C6C6"/>
</svg>
