<svg width="120" height="120" viewBox="0 0 120 120" fill="none" xmlns="http://www.w3.org/2000/svg">
<path d="M61.3164 10.0175L62.9853 1.45134L65.8798 2.01527C66.5518 2.1462 67.0775 2.37452 67.4569 2.70024C67.8396 3.02372 68.0942 3.41051 68.2206 3.86062C68.3471 4.31073 68.3612 4.78814 68.2629 5.29285C68.1645 5.79757 67.972 6.23617 67.6852 6.60866C67.4013 6.9817 67.0221 7.24935 66.5476 7.41161C66.0737 7.57109 65.5035 7.5859 64.8371 7.45606L62.7625 7.05186L62.9418 6.13166L64.9829 6.52934C65.443 6.61898 65.828 6.6115 66.1378 6.50688C66.4476 6.40227 66.6916 6.22694 66.8698 5.98091C67.0513 5.73263 67.1755 5.437 67.2423 5.09401C67.3091 4.75103 67.3047 4.4318 67.2292 4.13633C67.1564 3.8414 66.9941 3.58981 66.7424 3.38158C66.4911 3.17055 66.1327 3.01967 65.667 2.92894L63.8434 2.57364L62.3537 10.2196L61.3164 10.0175Z" fill="white"/>
<path d="M80.0334 14.1578L84.8267 6.86472L87.291 8.48434C87.8608 8.85881 88.2645 9.26353 88.5021 9.69849C88.7413 10.1311 88.838 10.5737 88.7921 11.0262C88.7462 11.4788 88.5821 11.92 88.2997 12.3497C88.0173 12.7794 87.679 13.1027 87.2849 13.3196C86.8907 13.5365 86.4496 13.6205 85.9616 13.5717C85.4751 13.5206 84.9493 13.3093 84.3843 12.9379L82.3901 11.6273L82.9144 10.8296L84.8801 12.1215C85.2694 12.3774 85.6203 12.5264 85.9326 12.5685C86.2472 12.6121 86.5266 12.5646 86.7708 12.4259C87.0189 12.2864 87.2389 12.0706 87.4308 11.7786C87.6227 11.4866 87.7358 11.1955 87.7702 10.9053C87.8045 10.6151 87.7408 10.3319 87.579 10.0556C87.4188 9.77691 87.1417 9.50806 86.7476 9.24905L85.1949 8.2286L80.9165 14.7383L80.0334 14.1578ZM85.6195 13.1379L85.2611 17.5937L84.2355 16.9196L84.6224 12.4825L85.6195 13.1379Z" fill="white"/>
<path d="M103.643 28.7368C102.878 29.2494 102.125 29.5543 101.383 29.6516C100.641 29.7489 99.9577 29.6582 99.3329 29.3793C98.7082 29.1005 98.1885 28.652 97.774 28.0338C97.3595 27.4155 97.1419 26.7645 97.1211 26.0806C97.1004 25.3968 97.2759 24.7301 97.6477 24.0807C98.0194 23.4312 98.5875 22.8502 99.352 22.3376C100.117 21.825 100.87 21.52 101.612 21.4227C102.354 21.3254 103.037 21.4161 103.662 21.695C104.287 21.9738 104.806 22.4223 105.221 23.0406C105.635 23.6588 105.853 24.3098 105.874 24.9937C105.894 25.6775 105.719 26.3442 105.347 26.9937C104.975 27.6431 104.407 28.2241 103.643 28.7368ZM103.073 27.8873C103.701 27.4665 104.16 27.0063 104.451 26.5067C104.744 26.0096 104.881 25.5085 104.864 25.0034C104.849 24.5008 104.694 24.03 104.4 23.5911C104.105 23.1523 103.728 22.829 103.267 22.6214C102.808 22.4162 102.292 22.3534 101.72 22.4329C101.149 22.5148 100.549 22.7662 99.9216 23.187C99.294 23.6079 98.8339 24.0669 98.5413 24.564C98.2503 25.0636 98.1125 25.5647 98.1281 26.0673C98.1452 26.5723 98.3008 27.0443 98.5951 27.4832C98.8894 27.9221 99.2661 28.2441 99.7252 28.4493C100.186 28.6569 100.702 28.7197 101.273 28.6379C101.845 28.5583 102.446 28.3081 103.073 27.8873Z" fill="white"/>
<path d="M115.952 43.9933L116.157 45.0298L110.038 46.2445C109.492 46.3529 109.008 46.3447 108.586 46.2198C108.165 46.095 107.819 45.8697 107.549 45.5439C107.278 45.2181 107.094 44.8072 106.996 44.3112C106.903 43.8431 106.905 43.4096 107.002 43.0109C107.103 42.6115 107.291 42.2758 107.567 42.0038C107.843 41.7317 108.2 41.5523 108.638 41.4655L108.84 42.4853C108.598 42.5335 108.398 42.6354 108.24 42.7912C108.086 42.9492 107.98 43.144 107.922 43.3757C107.864 43.6074 107.861 43.8584 107.915 44.1287C107.974 44.4269 108.087 44.668 108.254 44.8521C108.421 45.0362 108.637 45.1585 108.901 45.2191C109.168 45.2819 109.478 45.2781 109.832 45.2079L115.952 43.9933Z" fill="white"/>
<path d="M109.906 60.6135L118.496 62.156L117.565 67.3402L116.642 67.1745L117.387 63.0305L114.484 62.5093L113.788 66.3848L112.865 66.2191L113.561 62.3436L110.642 61.8194L109.886 66.0304L108.963 65.8647L109.906 60.6135Z" fill="white"/>
<path d="M107.469 88.2015L108.041 87.3128C108.33 87.4248 108.614 87.4774 108.892 87.4705C109.168 87.4661 109.432 87.4129 109.684 87.3112C109.936 87.2133 110.168 87.0737 110.379 86.8922C110.59 86.7107 110.775 86.4981 110.931 86.2544C111.217 85.8101 111.364 85.3353 111.372 84.8301C111.378 84.3272 111.231 83.8288 110.931 83.3348C110.629 82.8432 110.16 82.3929 109.525 81.9839C108.889 81.5749 108.285 81.3348 107.713 81.2637C107.139 81.1949 106.624 81.2674 106.169 81.4812C105.712 81.6974 105.341 82.0277 105.055 82.472C104.898 82.7156 104.781 82.9713 104.703 83.2389C104.626 83.5065 104.593 83.7745 104.606 84.043C104.62 84.3155 104.682 84.5785 104.793 84.832C104.904 85.0895 105.069 85.326 105.289 85.5415L104.717 86.4302C104.385 86.1219 104.128 85.784 103.945 85.4166C103.763 85.0492 103.652 84.6672 103.613 84.2706C103.577 83.8756 103.611 83.4799 103.714 83.0834C103.815 82.6893 103.985 82.3072 104.224 81.9369C104.626 81.311 105.138 80.8528 105.757 80.5623C106.376 80.2718 107.058 80.1682 107.802 80.2516C108.545 80.335 109.304 80.6258 110.078 81.1239C110.852 81.6221 111.431 82.1924 111.815 82.8347C112.199 83.4771 112.387 84.1404 112.379 84.8245C112.371 85.5086 112.166 86.1636 111.763 86.7895C111.524 87.1598 111.247 87.4728 110.93 87.7285C110.612 87.9865 110.265 88.1801 109.888 88.3091C109.513 88.4396 109.121 88.498 108.711 88.4841C108.303 88.4717 107.889 88.3775 107.469 88.2015Z" fill="white"/>
<path d="M99.6628 101.792L100.195 102.564L94.8062 106.28L94.274 105.508L96.5334 103.95L92.1117 97.5368L92.9817 96.9369L97.4035 103.35L99.6628 101.792Z" fill="white"/>
<path d="M75.4639 113.583C75.6056 113.994 75.8795 114.277 76.2856 114.433C76.6916 114.589 77.1528 114.611 77.6692 114.499C78.0467 114.417 78.3638 114.284 78.6203 114.1C78.8741 113.917 79.0569 113.701 79.1686 113.453C79.2776 113.205 79.3025 112.945 79.2433 112.673C79.1938 112.446 79.0971 112.262 78.9532 112.122C78.8071 111.985 78.6362 111.881 78.4406 111.81C78.2455 111.742 78.0461 111.694 77.8422 111.666C77.6389 111.64 77.4537 111.624 77.2864 111.616L76.3695 111.572C76.1348 111.562 75.8702 111.535 75.5758 111.491C75.2787 111.448 74.9858 111.365 74.6973 111.242C74.4067 111.122 74.1496 110.943 73.926 110.703C73.7024 110.464 73.5472 110.145 73.4602 109.745C73.3599 109.284 73.3901 108.841 73.5507 108.417C73.7085 107.993 73.994 107.621 74.4071 107.302C74.8174 106.983 75.3501 106.752 76.0053 106.61C76.616 106.477 77.1662 106.46 77.6561 106.56C78.1431 106.661 78.5527 106.859 78.8847 107.156C79.214 107.454 79.4461 107.832 79.5809 108.291L78.5149 108.523C78.4171 108.207 78.2508 107.964 78.0162 107.794C77.7793 107.628 77.504 107.525 77.1902 107.486C76.8742 107.45 76.5468 107.469 76.2082 107.542C75.814 107.628 75.4739 107.769 75.188 107.965C74.9027 108.164 74.6935 108.398 74.5604 108.668C74.428 108.941 74.3955 109.233 74.4632 109.544C74.5248 109.827 74.654 110.041 74.8509 110.184C75.0478 110.327 75.2874 110.426 75.5697 110.481C75.852 110.536 76.1521 110.572 76.4701 110.59L77.5846 110.662C78.2925 110.708 78.8794 110.867 79.3454 111.138C79.8113 111.409 80.1068 111.831 80.2318 112.406C80.3357 112.884 80.2972 113.328 80.1163 113.739C79.9332 114.154 79.6439 114.508 79.2481 114.801C78.8502 115.096 78.3792 115.304 77.8352 115.422C77.2855 115.542 76.7755 115.549 76.3051 115.445C75.8353 115.344 75.4387 115.151 75.1152 114.867C74.7889 114.583 74.572 114.228 74.4645 113.8L75.4639 113.583Z" fill="white"/>
<path d="M35.5613 109.388L36.4923 109.888C36.4034 110.185 36.3734 110.472 36.4021 110.749C36.4283 111.024 36.5021 111.283 36.6233 111.526C36.7407 111.769 36.8982 111.989 37.0958 112.186C37.2933 112.382 37.5198 112.549 37.775 112.686C38.2405 112.936 38.7254 113.045 39.2296 113.013C39.7314 112.98 40.2167 112.794 40.6855 112.455C41.1518 112.116 41.5638 111.613 41.9215 110.947C42.2792 110.282 42.471 109.661 42.4968 109.084C42.5202 108.507 42.4074 108 42.1584 107.563C41.9069 107.124 41.5484 106.78 41.083 106.53C40.8277 106.393 40.5636 106.296 40.2907 106.24C40.0179 106.183 39.7481 106.172 39.4814 106.206C39.2109 106.242 38.9537 106.324 38.7096 106.454C38.4617 106.586 38.239 106.769 38.0414 107.005L37.1104 106.505C37.3916 106.149 37.7082 105.866 38.0601 105.656C38.412 105.445 38.7841 105.304 39.1764 105.235C39.5673 105.167 39.9644 105.169 40.3678 105.241C40.7687 105.311 41.163 105.451 41.5509 105.659C42.2066 106.011 42.7036 106.485 43.042 107.08C43.3804 107.674 43.5373 108.345 43.5127 109.093C43.4882 109.841 43.2581 110.621 42.8224 111.432C42.3867 112.242 41.8638 112.864 41.2537 113.298C40.6435 113.731 39.9971 113.971 39.3145 114.017C38.6319 114.063 37.9627 113.909 37.3071 113.557C36.9192 113.349 36.5853 113.097 36.3055 112.801C36.0231 112.504 35.8028 112.173 35.6446 111.807C35.4849 111.444 35.3959 111.058 35.3774 110.648C35.3576 110.241 35.4189 109.821 35.5613 109.388Z" fill="white"/>
<path d="M19.0711 94.3963C19.7928 93.825 20.5196 93.4615 21.2515 93.3059C21.9835 93.1504 22.6719 93.1869 23.3168 93.4156C23.9616 93.6442 24.515 94.0503 24.9771 94.6339C25.4391 95.2174 25.7074 95.8493 25.7821 96.5294C25.8567 97.2095 25.7344 97.8879 25.415 98.5647C25.0957 99.2414 24.5752 99.8655 23.8536 100.437C23.1319 101.008 22.4051 101.372 21.6731 101.527C20.9411 101.683 20.2527 101.646 19.6079 101.418C18.963 101.189 18.4096 100.783 17.9476 100.199C17.4856 99.6157 17.2172 98.9839 17.1426 98.3038C17.0679 97.6237 17.1903 96.9453 17.5096 96.2685C17.8289 95.5917 18.3494 94.9677 19.0711 94.3963ZM19.7059 95.1982C19.1135 95.6672 18.6919 96.1623 18.4412 96.6832C18.1888 97.2019 18.0911 97.7123 18.148 98.2144C18.2031 98.7143 18.3947 99.1713 18.7227 99.5856C19.0507 99.9999 19.4525 100.292 19.9282 100.463C20.4021 100.631 20.9213 100.653 21.4858 100.529C22.0486 100.402 22.6262 100.104 23.2187 99.635C23.8112 99.1659 24.2336 98.6721 24.4861 98.1533C24.7367 97.6324 24.8345 97.122 24.7793 96.6221C24.7224 96.12 24.53 95.6618 24.202 95.2476C23.874 94.8333 23.473 94.542 22.9991 94.3736C22.5235 94.2031 22.0043 94.1811 21.4415 94.3078C20.8769 94.4323 20.2984 94.7291 19.7059 95.1982Z" fill="white"/>
<path d="M6.1158 83.1555L5.81587 81.9303L12.1472 77.3269L12.1229 77.2276L4.38109 76.0693L4.08117 74.8441L12.5581 72.7689L12.7932 73.7292L6.3527 75.3058L6.37297 75.3886L13.462 76.461L13.6889 77.3882L7.89691 81.6139L7.91718 81.6967L14.3577 80.12L14.5928 81.0803L6.1158 83.1555Z" fill="white"/>
<path d="M10.1688 59.5547L1.57303 58.0454L2.08301 55.141C2.20141 54.4666 2.41991 53.9368 2.73852 53.5514C3.05482 53.1628 3.4368 52.901 3.88448 52.7662C4.33216 52.6313 4.80923 52.6084 5.31568 52.6973C5.82214 52.7862 6.26425 52.9706 6.64201 53.2504C7.02027 53.5273 7.29493 53.9015 7.46599 54.3728C7.63426 54.8437 7.65968 55.4135 7.54226 56.0822L7.17673 58.164L6.25335 58.0019L6.61299 55.9537C6.69405 55.492 6.6794 55.1072 6.56904 54.7994C6.45868 54.4916 6.27885 54.2509 6.02954 54.0774C5.77792 53.9005 5.48003 53.7818 5.13587 53.7214C4.7917 53.661 4.47261 53.6713 4.17859 53.7524C3.88507 53.8306 3.63655 53.9975 3.43303 54.2531C3.22671 54.5082 3.08253 54.8694 3.00048 55.3367L2.67917 57.1667L10.3516 58.5138L10.1688 59.5547Z" fill="white"/>
<path d="M14.0115 40.8104L6.59157 36.2159L7.14794 35.3173L13.7708 39.4183L15.9066 35.9692L16.7036 36.4627L14.0115 40.8104Z" fill="white"/>
<path d="M24.0433 25.4151L18.8064 18.4338L23.0198 15.2732L23.5823 16.0231L20.2144 18.5495L21.9839 20.9085L25.1337 18.5457L25.6962 19.2957L22.5464 21.6584L24.3262 24.031L27.7487 21.4637L28.3113 22.2136L24.0433 25.4151Z" fill="white"/>
<path d="M36.8436 7.09031L36.6033 6.18415L42.93 4.50605L43.1703 5.41221L40.5177 6.11579L42.5148 13.6452L41.4933 13.9161L39.4962 6.38673L36.8436 7.09031Z" fill="white"/>
</svg>
