<svg width="716" height="1069" viewBox="0 0 716 1069" fill="none" xmlns="http://www.w3.org/2000/svg">
<path opacity="0.3" d="M480.458 -353.232L480.546 -352.755C456.481 -328.64 431.698 -304.775 406.998 -280.988C325.473 -202.487 244.844 -124.849 194.008 -41.9063C76.7966 149.341 118.066 368.887 671.932 692.478L672.026 692.996C117.582 369.14 76.2998 149.381 193.643 -42.0857C244.506 -125.071 325.151 -202.731 406.695 -281.249C431.47 -305.104 456.33 -329.042 480.458 -353.232ZM477.492 -369.433L477.582 -368.94C449.811 -338.706 420.723 -308.735 391.679 -278.8C311.027 -195.71 230.633 -112.885 179.55 -25.471C59.7598 179.535 101.231 409.904 678.541 728.503L678.634 729.009C100.749 410.165 59.2512 179.58 179.179 -25.6438C230.289 -113.106 310.696 -195.944 391.365 -279.051C420.497 -309.067 449.658 -339.117 477.492 -369.433ZM473.999 -388.511L474.092 -387.999C443.095 -351.355 409.912 -314.882 376.656 -278.326C296.447 -190.169 215.806 -101.531 164.422 -8.9017C42.8218 210.303 85.1784 451.968 684.82 762.869L684.912 763.37C84.6827 452.242 42.3312 210.359 164.046 -9.06787C215.452 -101.735 296.11 -190.39 376.334 -278.57C409.68 -315.214 442.94 -351.777 473.999 -388.511ZM469.974 -410.491L470.071 -409.962C436.395 -366.739 399.339 -323.416 362.042 -279.79C281.765 -185.917 200.263 -90.6143 148.514 8.1756C26.0805 241.881 70.239 495.186 690.798 795.512L690.886 795.997C69.76 495.464 25.5838 241.938 148.132 8.01049C199.907 -90.8152 281.417 -186.137 361.71 -280.03C399.107 -323.75 436.235 -367.172 469.974 -410.491ZM456.567 -423.158L457.146 -423.264C423.495 -377.222 385.943 -330.628 347.911 -283.444C266.975 -183.025 183.877 -79.9284 131.681 26.2125C9.56146 274.549 56.7371 539.657 696.45 826.383L696.537 826.86C56.2584 539.954 9.07849 274.629 131.296 26.0677C183.512 -80.1194 266.623 -183.233 347.564 -283.664C385.515 -330.739 422.981 -377.224 456.565 -423.172L456.567 -423.158ZM429.57 -418.215L430.139 -418.319C400.376 -376.209 367.647 -333.264 334.384 -289.604C252.113 -181.624 166.506 -69.2576 113.806 45.7427C-6.67102 308.66 44.9881 585.426 701.761 855.388L701.846 855.851C44.5146 585.733 -7.17201 308.746 113.419 45.6039C166.134 -69.4332 251.754 -181.816 334.029 -289.817C367.218 -333.367 399.853 -376.204 429.584 -418.231L429.57 -418.215ZM402.501 -413.258L403.064 -413.361C377.48 -375.998 349.821 -337.708 321.618 -298.667C237.264 -181.895 148.034 -58.3711 94.8179 67.3429C-22.5153 344.537 35.3465 632.471 706.716 882.447L706.799 882.902C34.8921 632.795 -23.006 344.644 94.4265 67.2163C147.641 -58.5372 236.9 -182.081 321.268 -298.869C349.393 -337.808 376.978 -375.991 402.499 -413.272L402.501 -413.258ZM375.37 -408.29L375.923 -408.392C354.93 -376.765 332.614 -344.296 309.825 -311.134C222.585 -184.183 128.358 -47.0858 74.7037 91.6327C-37.831 382.577 28.1454 680.707 711.298 907.474L711.379 907.915C27.6843 681.029 -38.3145 382.688 74.3044 91.5161C127.974 -47.242 222.207 -184.36 309.469 -311.33C332.187 -344.388 354.436 -376.76 375.367 -408.304L375.37 -408.29ZM348.176 -403.311L348.723 -403.411C332.838 -378.746 316.246 -353.464 299.307 -327.658C208.313 -189.031 107.388 -35.2718 53.5232 119.238C-52.4081 423.099 23.7444 729.891 715.478 930.303L715.557 930.736C23.3008 730.238 -52.8897 423.221 53.1196 119.134C107.002 -35.4192 207.94 -189.201 298.947 -327.846C315.816 -353.553 332.349 -378.736 348.173 -403.325L348.176 -403.311ZM320.926 -398.321L321.467 -398.42C311.378 -382.284 301.054 -365.851 290.492 -349.123C194.906 -197.36 85.0534 -22.9475 31.4308 150.775C-65.3318 464.235 21.0997 775.434 704.781 947.27L703.843 947.442C20.5749 775.497 -65.7619 464.215 31.023 150.682C84.6636 -23.0828 194.531 -197.523 290.129 -349.308C300.598 -365.931 310.862 -382.274 320.923 -398.335L320.926 -398.321ZM293.625 -393.323L294.16 -393.421L284.054 -376.788C183.1 -210.728 61.2907 -10.3446 8.67327 186.81C-75.6303 502.699 17.8107 810.366 659.226 955.625L658.238 955.806C17.2933 810.399 -76.063 502.665 8.25496 186.731C60.8899 -10.4865 182.716 -210.881 283.688 -376.968L293.625 -393.323ZM266.278 -388.315L266.81 -388.413C162.248 -211.39 33.7944 11.7034 -14.4044 227.838C-84.702 543.065 15.8358 843.478 610.336 964.563L609.317 964.75C15.3238 843.486 -85.1238 543.037 -14.8202 227.772C33.3684 11.688 161.742 -211.317 266.276 -388.329L266.278 -388.315ZM238.884 -383.299L239.412 -383.396C132.473 -197.306 3.31594 44.4239 -37.3491 274.233C-92.3578 585.077 14.6635 874.108 557.539 974.245L556.463 974.441C14.121 874.092 -92.7753 585.037 -37.7667 274.193C2.90231 44.4232 131.961 -197.227 238.882 -383.313L238.884 -383.299ZM211.456 -378.277L211.975 -378.372C91.8432 -163.622 -52.5733 131.135 -65.7459 393.887C-79.5059 668.357 50.03 907.869 500.073 984.753L498.963 984.956C49.4829 907.845 -79.921 668.331 -66.1694 393.885C-52.9981 131.162 91.3331 -163.514 211.453 -378.291L211.456 -378.277ZM183.987 -373.247L184.503 -373.342C65.5998 -155.127 -73.1735 151.519 -82.7783 421.229C-92.4808 693.758 29.751 928.542 437.714 996.171L436.598 996.375C29.2026 928.475 -92.9045 693.702 -83.1949 421.212C-73.5994 151.557 65.0939 -155.014 183.984 -373.261L183.987 -373.247ZM156.48 -368.211L156.996 -368.305C39.5752 -147.201 -93.1542 170.381 -99.764 446.586C-102.337 554.271 -85.7457 655.663 -41.595 742.585C2.55566 829.507 74.2538 901.947 181.893 951.758C235.617 976.619 298.291 995.84 370.957 1008.39L369.851 1008.6C297.574 996.019 235.192 976.853 181.689 952.093C73.9651 902.241 2.2024 829.731 -41.9827 742.744C-86.1678 655.758 -102.768 554.318 -100.188 446.578C-93.5789 170.425 39.076 -147.087 156.478 -368.224L156.48 -368.211ZM128.939 -363.168L129.449 -363.261C7.67324 -128.096 -125.94 222.347 -116.395 514.014C-113.118 614.058 -93.0035 707.188 -49.7851 786.372C-6.56681 865.556 59.7394 930.779 155.405 975.06C198.053 994.796 246.538 1010.36 301.409 1021.15L300.356 1021.34C245.837 1010.56 197.639 995.039 155.2 975.406C59.4552 931.097 -6.91186 865.806 -50.1636 786.563C-93.4154 707.32 -113.538 614.149 -116.815 514.051C-126.359 222.401 7.17755 -127.963 128.937 -363.182L128.939 -363.168ZM101.364 -358.119L101.873 -358.212C15.7583 -187.753 -73.8215 46.3373 -113.213 274.967C-142.636 445.796 -144.051 613.563 -95.0486 749.425C-46.0462 885.287 53.3411 989.204 225.518 1032.42C227.549 1032.93 229.587 1033.43 231.633 1033.92L230.695 1034.09C228.928 1033.66 227.165 1033.23 225.408 1032.79C53.0792 989.538 -46.3998 885.507 -95.4376 749.559C-144.475 613.61 -143.057 445.808 -113.615 274.922C-74.2493 46.3648 15.2791 -187.653 101.361 -358.133L101.364 -358.119ZM73.7667 -353.066L74.2699 -353.158C-15.3467 -171.387 -105.93 86.0535 -138.459 332.275C-160.606 499.917 -155.843 662.342 -105.539 792.101C-59.1496 911.768 25.9808 1003.65 164.459 1046.23L163.622 1046.38C25.4162 1003.67 -59.5686 911.807 -105.937 792.236C-156.267 662.411 -161.035 499.936 -138.879 332.242C-106.36 86.0869 -15.8311 -171.298 73.7643 -353.079L73.7667 -353.066ZM46.1382 -348.007L46.6416 -348.099C-46.4645 -154.722 -137.426 127.946 -161.955 391.769C-177.177 555.449 -166.824 711.864 -115.546 835.175C-73.443 936.424 -3.73123 1015.34 102.068 1057.64L101.336 1057.78C-4.26387 1015.38 -73.8737 936.489 -115.945 835.322C-167.247 711.956 -177.603 555.482 -162.379 391.747C-137.854 127.993 -46.9395 -154.598 46.1357 -348.02L46.1382 -348.007ZM18.4879 -342.944L18.985 -343.035C-77.4709 -137.941 -168.05 171.482 -183.583 452.447C-192.381 611.564 -177.114 761.546 -125.215 878.256C-88.3215 961.203 -32.923 1027.34 45.4767 1067.99L44.8327 1068.11C-33.4348 1027.38 -88.7669 961.276 -125.61 878.396C-177.535 761.632 -192.811 611.598 -184.009 452.428C-168.474 171.545 -77.9532 -137.804 18.4854 -342.958L18.4879 -342.944ZM665.144 655.407C134.971 329.016 93.4836 119.531 207.614 -58.6897C258.262 -137.787 339.534 -210.717 422.305 -284.991C442.56 -303.165 462.897 -321.421 482.906 -339.867L482.99 -339.404C463.05 -321.027 442.78 -302.831 422.597 -284.719C339.846 -210.462 258.593 -137.55 207.978 -58.5042C93.9852 119.518 135.454 328.774 665.046 654.875L665.144 655.407Z" fill="#888888"/>
</svg>
