<svg width="96" height="75" viewBox="0 0 96 75" fill="none" xmlns="http://www.w3.org/2000/svg">
<path opacity="0.4" d="M89.8366 39.3911L89.8366 39.3896C89.8366 36.9142 87.8549 34.9416 85.3854 34.9416L60.9976 34.9416L60.9976 2.5L93.5 2.50001L93.5 39.3896C93.5 56.1643 80.9461 70.0786 64.7439 72.2561L64.7439 68.5807C71.3082 67.5721 77.3681 64.3819 81.9206 59.4904C87.0042 54.0283 89.8323 46.8487 89.8366 39.3911ZM2.5 34.9416L2.5 2.5L35.0024 2.5L35.0024 39.3896C35.0024 56.1648 22.4469 70.0817 6.2073 72.2568L6.2073 68.5852C20.4312 66.4293 31.339 54.1814 31.339 39.3896C31.339 36.9142 29.3574 34.9416 26.8878 34.9416L2.5 34.9416Z" stroke="#3C3C3C" stroke-width="5"/>
</svg>
