<svg width="740" height="450" viewBox="0 0 740 450" fill="none" xmlns="http://www.w3.org/2000/svg">
<path opacity="0.2" d="M38.839 449.993L39.0964 449.993C49.397 434.895 59.4979 419.44 69.5661 404.037C102.791 353.197 135.651 302.916 174.135 267.916C262.87 187.213 381.561 187.78 603.681 449.993L603.961 449.993C381.647 187.499 262.843 186.946 174.006 267.739C135.503 302.759 102.633 353.05 69.4004 403.901C59.3041 419.351 49.1722 434.854 38.839 449.993ZM30.0878 449.993L30.3543 449.993C43.4979 432.336 56.3781 414.006 69.2435 395.703C104.951 344.881 140.544 294.221 181.341 258.655C277.02 175.251 401.387 174.874 623.141 450L623.415 450C401.477 174.593 276.995 174.977 181.215 258.476C140.396 294.061 104.797 344.728 69.0822 395.561C56.1827 413.918 43.2685 432.295 30.0878 449.993ZM19.7828 449.993L20.0596 449.993C36.2446 430.003 52.1306 408.871 68.0536 387.693C106.452 336.614 145.06 285.259 188.553 249.027C291.479 163.285 421.834 162.281 641.703 449.993L641.974 449.993C421.93 161.991 291.461 163.019 188.43 248.844C144.919 285.091 106.303 336.456 67.8952 387.546C51.9352 408.781 36.0092 429.962 19.7828 449.993ZM7.91047 449.993L8.19605 449.993C27.563 427.945 46.6591 404.095 65.8899 380.087C107.268 328.417 149.277 275.96 195.956 238.936C306.381 151.344 442.992 150.166 659.336 449.993L659.598 449.993C443.091 149.885 306.363 151.075 195.833 238.75C149.138 275.79 107.12 328.255 65.733 379.935C46.4622 404.004 27.3218 427.902 7.91047 449.993ZM0.00732919 444.115L0.00732922 444.432C20.8498 422.124 41.608 397.693 62.628 372.951C107.365 320.296 153.294 266.235 203.772 228.262C321.873 139.416 464.941 138.691 676.01 449.993L676.268 449.993C465.051 138.409 321.869 139.152 203.659 228.071C153.16 266.061 107.223 320.13 62.48 372.788C41.5088 397.477 20.7996 421.851 4.97037e-06 444.115L0.00732919 444.115ZM0.0073279 429.323L0.00732792 429.635C19.1671 409.769 38.4793 388.25 58.1141 366.378C106.675 312.281 157.209 255.991 212.268 216.89C338.147 127.499 487.737 128.02 691.677 449.993L691.928 449.993C487.852 127.739 338.144 127.225 212.159 216.698C157.081 255.811 106.54 312.11 57.969 366.21C38.3846 388.032 19.1198 409.491 3.67797e-06 429.332L0.0073279 429.323ZM0.0073266 414.492L0.00732663 414.8C17.0862 397.611 34.4509 379.231 52.1558 360.49C105.112 304.436 161.131 245.141 221.74 204.727C355.382 115.617 511.402 118.342 706.294 449.993L706.539 449.993C511.528 118.07 355.39 115.347 221.636 204.531C161.006 244.949 104.98 304.261 52.0167 360.324C34.3576 379.013 17.0419 397.344 2.38063e-06 414.492L0.0073266 414.492ZM0.0073253 399.627L0.00732533 399.93C14.5273 385.73 29.3611 370.748 44.5116 355.448C102.512 296.876 165.146 233.615 232.51 191.706C373.797 103.805 535.922 109.842 719.812 449.993L720.05 449.993C536.046 109.566 373.809 103.538 232.411 191.505C165.027 233.427 102.383 296.693 44.3755 355.278C29.2723 370.531 14.483 385.468 1.08103e-06 399.627L0.0073253 399.627ZM0.007324 384.727L0.00732402 385.026C11.378 374.211 23.0032 362.961 34.8696 351.476C98.6121 289.781 169.313 221.351 244.91 177.797C393.58 92.1439 561.206 102.735 732.143 449.993L732.377 449.993C561.345 102.466 393.597 91.8767 244.817 177.594C169.199 221.161 98.4878 289.599 34.7364 351.303C22.9159 362.742 11.3366 373.951 -2.21551e-07 384.727L0.007324 384.727ZM0.00732269 369.796L0.00732272 370.092C7.47528 363.178 15.0755 356.109 22.8079 348.887C92.9764 283.482 173.617 208.315 259.278 163.024C413.842 81.2995 584.755 96.9118 739.987 442.675L739.987 442.161C584.737 96.6275 413.79 81.0734 259.191 162.817C173.509 208.121 92.8551 283.298 22.6762 348.712C14.9902 355.875 7.43145 362.903 -1.52683e-06 369.796L0.00732269 369.796ZM0.00732138 354.838L0.00732141 355.131L7.73284 348.159C84.8602 278.52 177.93 194.494 275.934 147.462C432.959 72.1062 602.697 91.7773 739.994 417.714L739.994 417.172C602.664 91.4999 432.9 71.8801 275.852 147.248C177.817 194.295 84.7432 278.332 7.60406 347.982L0.00732138 354.838ZM0.00732007 339.854L0.0073201 340.145C82.5188 267.53 186.821 177.777 295.167 131.245C453.187 63.3787 619.813 87.5163 739.987 390.928L739.987 390.37C619.768 87.2441 453.132 63.1577 295.093 131.031C186.773 177.552 82.5085 267.254 -4.14442e-06 339.854L0.00732007 339.854ZM0.00731876 324.845L0.00731879 325.134C87.0298 250.378 201.006 158.443 317.219 114.577C474.411 55.2419 635.709 83.9215 739.994 361.998L739.994 361.409C635.649 83.6355 474.351 55.0244 317.158 114.36C200.966 158.224 87.0224 250.099 -5.45659e-06 324.845L0.00731876 324.845ZM0.00731745 309.817L0.00731747 310.101C100.746 225.569 240.975 120.397 377.037 87.9086C519.166 53.9712 656.738 99.3934 739.987 330.514L739.987 329.906C656.673 99.1057 519.112 53.7537 376.995 87.6842C240.948 120.169 100.754 225.288 -6.7704e-06 309.817L0.00731745 309.817ZM0.00731613 294.766L0.00731616 295.049C102.675 210.832 249.657 107.498 389.696 76.225C531.199 44.6271 665.602 86.636 739.987 296.347L739.987 295.735C665.514 86.3518 531.13 44.4079 389.647 76.0058C249.636 107.268 102.685 210.553 -8.08616e-06 294.766L0.00731613 294.766ZM0.00731481 279.695L0.00731484 279.978C104.326 196.266 257.603 95.0741 401.323 64.759C457.356 52.9419 511.935 51.8955 561.588 66.8638C611.241 81.8321 655.961 112.81 692.295 165.038C710.429 191.106 726.472 222.466 739.987 259.77L739.987 259.164C726.497 222.069 710.51 190.858 692.45 164.898C656.087 112.629 611.324 81.6231 561.634 66.6428C511.943 51.6625 457.34 52.709 401.278 64.5347C257.585 94.8447 104.338 195.991 -9.40372e-06 279.695L0.00731481 279.695ZM0.00731349 264.605L0.00731352 264.884C111.258 177.499 281.624 72.6491 434.972 49.3968C487.571 41.4228 538.169 43.0463 583.688 58.2716C629.208 73.4968 669.641 102.317 701.938 148.734C716.334 169.428 729.109 193.62 739.996 221.663L739.996 221.085C729.143 193.23 716.421 169.184 702.099 148.592C669.78 102.135 629.305 73.2896 583.752 58.0524C538.198 42.8152 487.579 41.1916 434.951 49.1708C281.612 72.4213 111.281 177.224 -1.07229e-05 264.605L0.00731349 264.605ZM0.00731217 249.496L0.0073122 249.775C80.8538 187.576 194.624 117.364 310.343 74.288C396.807 42.1078 484.352 25.0724 560.047 37.8622C635.742 50.6521 699.563 93.2536 738.627 180.335C739.085 181.363 739.541 182.395 739.994 183.432L739.994 182.918C739.599 182.023 739.205 181.131 738.81 180.241C699.712 93.0824 635.823 50.4432 560.08 37.6431C484.336 24.8429 396.773 41.8835 310.281 74.0791C194.597 117.135 80.8598 187.313 -1.20438e-05 249.496L0.00731217 249.496ZM0.00731085 234.376L0.00731088 234.651C86.4304 169.498 212.308 96.4871 337.878 55.3413C423.373 27.3279 508.717 14.0859 581.347 28.1585C648.327 41.135 704.494 77.3467 740 146.626L740 146.167C704.451 77.0454 648.308 40.909 581.379 27.9342C508.713 13.8547 423.342 27.0985 337.82 55.1221C212.284 96.2559 86.4305 169.232 -1.33657e-05 234.376L0.00731085 234.376ZM0.00730953 219.238L0.00730955 219.513C92.1623 151.384 231.188 75.7232 366.723 37.1104C450.81 13.1525 533.548 3.45734 602.901 18.6723C659.846 31.1642 707.762 60.4603 739.994 112.442L739.994 112.041C707.731 60.1743 659.839 30.9296 602.94 18.4462C533.556 3.22446 450.787 12.923 366.671 36.8878C231.172 75.492 92.1816 151.12 -1.46891e-05 219.238L0.00730953 219.238ZM0.0073082 204.088L0.00730823 204.36C97.9653 133.317 251.011 55.2625 396.365 19.7547C478.683 -0.354939 558.529 -6.82009 624.491 9.3642C671.372 20.8713 711.237 43.8205 739.987 81.4365L739.987 81.0837C711.212 43.5447 671.368 20.6281 624.527 9.14155C558.533 -7.0513 478.659 -0.586151 396.315 19.5303C251.003 55.0313 97.9905 133.048 -1.60135e-05 204.088L0.0073082 204.088ZM583.657 449.993C362.34 200.613 248.887 198.953 166.666 276.758C130.174 311.286 99.836 361.451 68.9387 412.54C61.379 425.042 53.7837 437.595 46.0582 449.993L46.3083 449.993C54.0042 437.638 61.5743 425.126 69.1088 412.668C99.9988 361.591 130.329 311.438 166.797 276.933C248.929 199.221 362.26 200.892 583.37 449.993L583.657 449.993Z" fill="#C6C6C6"/>
</svg>
