<svg width="430" height="806" viewBox="0 0 430 806" fill="none" xmlns="http://www.w3.org/2000/svg">
<path opacity="0.6" d="M-285.93 139.717L-285.844 139.962C-264.625 143.517 -243.054 146.735 -221.554 149.942C-150.596 160.524 -80.4178 170.988 -26.3161 193.153C98.4282 244.262 137.681 357.644 -95.9571 678.176L-95.863 678.443C138.04 357.609 98.7334 244.126 -26.1519 192.957C-80.2823 170.782 -150.476 160.311 -221.451 149.728C-243.014 146.513 -264.652 143.286 -285.93 139.717ZM-288.874 131.374L-288.784 131.628C-263.6 136.832 -237.713 141.506 -211.863 146.177C-140.09 159.132 -68.5475 172.045 -13.0031 196.181C117.255 252.788 159.526 371.189 -89.4201 696.73L-89.328 696.991C159.886 371.159 117.568 252.65 -12.834 195.986C-68.408 171.837 -139.963 158.922 -211.75 145.964C-237.676 141.284 -263.629 136.597 -288.874 131.374ZM-292.34 121.55L-292.246 121.814C-263.296 128.95 -233.104 135.327 -202.844 141.72C-129.865 157.133 -56.49 172.631 0.744698 199.061C136.189 261.607 181.211 385.457 -83.1691 714.422L-83.078 714.68C181.584 385.429 136.495 261.48 0.918928 198.868C-56.3399 172.428 -129.729 156.926 -202.724 141.508C-233.063 135.103 -263.327 128.709 -292.34 121.55ZM-296.333 110.233L-296.236 110.505C-263.796 119.82 -229.327 128.129 -194.628 136.502C-119.951 154.511 -44.1357 172.794 15.1006 201.932C155.242 270.859 202.574 400.6 -77.2388 731.231L-77.1507 731.481C202.937 400.578 155.552 270.731 15.2788 201.737C-43.9831 172.591 -119.81 154.302 -194.502 136.289C-229.287 127.904 -263.826 119.572 -296.333 110.233ZM-292.079 100.26L-292.451 100.392C-259.208 111.005 -223.498 120.658 -187.333 130.431C-110.369 151.233 -31.3498 172.589 30.282 204.954C174.479 280.679 223.449 416.764 -71.6306 747.127L-71.544 747.372C223.818 416.751 174.788 280.566 30.4677 204.768C-31.1896 172.388 -110.221 151.029 -187.191 130.223C-223.277 120.474 -258.905 110.844 -292.081 100.253L-292.079 100.26ZM-274.685 94.1232L-275.051 94.2525C-245.246 104.275 -213.445 113.758 -181.122 123.401C-101.176 147.25 -17.9859 172.07 46.5121 208.336C193.966 291.249 243.665 434.068 -66.3613 762.062L-66.2772 762.301C244.034 434.061 194.287 291.133 46.7008 208.152C-17.8173 171.874 -101.019 147.051 -180.973 123.193C-213.221 113.577 -244.935 104.115 -274.697 94.1197L-274.685 94.1232ZM-257.244 87.97L-257.606 88.0979C-231.649 97.2475 -204.195 106.176 -176.202 115.278C-92.4753 142.506 -3.90862 171.308 64.0007 212.319C213.735 302.749 263.005 452.612 -61.4454 775.996L-61.3628 776.23C263.367 452.619 214.056 302.645 64.1954 212.139C-3.72492 171.109 -92.3143 142.308 -176.053 115.077C-203.971 105.997 -231.349 97.0944 -257.246 87.963L-257.244 87.97ZM-239.763 81.8026L-240.12 81.9284C-218.539 89.8792 -195.932 97.8045 -172.844 105.899C-84.4605 136.89 10.9954 170.353 82.9347 217.183C233.818 315.403 281.247 472.461 -56.8989 788.882L-56.8187 789.11C281.613 472.465 234.137 315.304 83.137 217.006C11.1772 170.162 -84.2884 136.692 -172.69 105.699C-195.706 97.6296 -218.245 89.7282 -239.766 81.7956L-239.763 81.8026ZM-222.242 75.621L-222.594 75.7454C-206.052 82.0979 -188.913 88.5127 -171.416 95.06C-77.4284 130.229 26.8188 169.238 103.46 223.235C254.185 329.424 298.108 493.615 -52.7516 800.638L-52.6729 800.861C298.471 493.636 254.505 329.33 103.669 223.061C27.004 169.051 -77.2568 130.035 -171.258 94.8613C-188.684 88.3385 -205.76 81.9504 -222.244 75.614L-222.242 75.621ZM-204.685 69.4266L-205.033 69.5496C-194.391 73.8 -183.522 78.1126 -172.428 82.4872C-71.9166 122.243 43.5964 167.932 125.665 230.802C273.752 344.241 312.876 513.649 -41.5079 805.079L-40.9038 804.866C313.204 513.514 274 344.098 125.879 230.633C43.7876 167.749 -71.7419 122.052 -172.267 82.2893C-183.276 77.9342 -194.082 73.6443 -204.687 69.4196L-204.685 69.4266ZM-187.095 63.2208L-187.439 63.3424L-176.642 67.8145C-68.812 112.448 61.2991 166.31 149.567 240.223C290.992 358.651 324.948 528.622 -12.1526 794.73L-11.5161 794.506C325.263 528.476 291.238 358.501 149.791 240.057C61.4949 166.12 -68.6299 112.258 -176.478 67.6185L-187.095 63.2208ZM-169.475 57.0044L-169.818 57.1252C-56.6762 105.656 83.9475 167.85 175.106 251.831C308.058 374.313 335.715 543.171 19.3428 783.61L19.9993 783.379C336.021 543.015 308.3 374.17 175.333 251.671C84.1949 167.711 -56.3554 105.532 -169.478 56.9974L-169.475 57.0044ZM-151.825 50.7774L-152.165 50.8974C-34.9895 102.841 111.453 173.351 202.122 265.937C324.765 391.171 345.289 556.833 53.3644 771.615L54.0572 771.371C345.605 556.657 325 391.023 202.357 265.789C111.698 173.222 -34.6637 102.718 -151.828 50.7703L-151.825 50.7774ZM-134.153 44.5425L-134.487 44.6604C-1.20265 105.624 169.636 195.669 253.601 311.897C341.311 433.307 334.168 583.299 90.3859 758.546L91.1008 758.293C334.484 583.117 341.549 433.166 253.851 311.764C169.894 195.549 -0.869851 105.514 -134.155 44.5354L-134.153 44.5425ZM-116.455 38.2983L-116.787 38.4156C16.7758 101.348 187.724 198.593 271.598 319.118C356.347 440.902 352.151 586.456 130.564 744.371L131.283 744.117C352.456 586.254 356.581 440.745 271.839 318.98C187.987 198.479 17.1075 101.242 -116.457 38.2913L-116.455 38.2983ZM-98.7321 32.0457L-99.0644 32.1629C34.4597 96.8793 205.006 201.014 288.992 325.444C321.733 373.958 341.32 425.553 340.418 479.097C339.517 532.641 318.129 588.124 268.933 644.429C244.378 672.531 212.897 700.835 173.575 729.196L174.288 728.944C213.372 700.694 244.697 672.506 269.15 644.519C318.385 588.169 339.79 532.633 340.694 479.049C341.597 425.465 322.002 373.846 289.24 325.309C205.27 200.902 34.7879 96.7762 -98.7346 32.0386L-98.7321 32.0457ZM-80.9875 25.7852L-81.3157 25.901C58.8597 95.7017 239.455 214.61 318.374 351.148C345.441 397.983 360.549 446.89 357.955 496.6C355.361 546.31 335.07 596.811 291.349 646.858C271.856 669.166 247.704 691.382 218.39 713.394L219.069 713.155C248.175 691.252 272.172 669.149 291.57 646.953C335.33 596.869 355.638 546.317 358.234 496.57C360.831 446.823 345.716 397.894 318.632 351.034C239.719 214.504 59.1914 95.6085 -80.99 25.7782L-80.9875 25.7852ZM-63.2206 19.5169L-63.5489 19.6327C36.7839 70.898 157.613 150.225 247.187 242.667C314.109 311.742 363.586 388.131 374.004 465.596C384.422 543.061 355.791 621.576 266.527 694.943C265.473 695.807 264.413 696.67 263.346 697.532L263.95 697.319C264.87 696.571 265.787 695.825 266.7 695.079C356.043 621.647 384.695 543.052 374.273 465.536C363.85 388.02 314.361 311.617 247.412 242.521C157.874 150.104 37.096 70.7943 -63.2231 19.5099L-63.2206 19.5169ZM-45.4397 13.2436L-45.7639 13.358C59.9184 68.7137 188.11 158.421 278.728 261.056C340.424 330.935 384.7 406.799 392.579 481.875C399.847 551.111 376.155 619.677 306.629 682.267L307.169 682.077C376.495 619.511 400.106 550.999 392.853 481.813C384.97 406.699 340.683 330.81 278.966 260.91C188.374 158.303 60.2306 68.6036 -45.4422 13.2366L-45.4397 13.2436ZM-27.6386 6.96322L-27.9629 7.07765C83.1474 66.6627 218.877 167.805 309.867 280.989C366.321 351.21 405.549 426.061 410.983 498.487C415.446 557.955 397.111 615.787 346.825 668.08L347.296 667.913C397.437 615.638 415.719 557.85 411.262 498.43C405.826 425.971 366.583 351.092 310.112 280.848C219.143 167.694 83.4641 66.5716 -27.6411 6.9562L-27.6386 6.96322ZM-9.82345 0.677892L-10.1437 0.790885C106.344 64.6992 249.604 178.213 340.246 302.047C391.579 372.176 426.036 445.611 429.19 515.207C431.426 564.672 417.847 612.196 383.283 655.209L383.698 655.063C418.163 612.058 431.711 564.567 429.464 515.148C426.31 445.519 391.843 372.058 340.493 301.906C249.874 178.11 106.669 64.6117 -9.82593 0.67087L-9.82345 0.677892ZM-102.692 659.087C116.126 344.645 79.9199 235.803 -39.2261 189.701C-92.1021 169.239 -161.295 161.13 -231.765 152.872C-249.009 150.852 -266.325 148.82 -283.502 146.599L-283.418 146.837C-266.301 149.048 -249.042 151.073 -231.858 153.087C-161.406 161.344 -92.229 169.45 -39.3872 189.899C79.6197 235.953 115.771 344.685 -102.788 658.814L-102.692 659.087Z" fill="#EBEBEB"/>
</svg>
