<svg width="25" height="25" viewBox="0 0 25 25" fill="none" xmlns="http://www.w3.org/2000/svg">
<path d="M4.12695 12.4348L4.87695 12.4348L4.12695 12.4348ZM12.127 21.1848C12.5412 21.1848 12.877 20.849 12.877 20.4348C12.877 20.0206 12.5412 19.6848 12.127 19.6848L12.127 21.1848ZM10.127 11.6848C9.71274 11.6848 9.37695 12.0206 9.37695 12.4348C9.37695 12.849 9.71274 13.1848 10.127 13.1848L10.127 11.6848ZM20.127 12.4348L20.6573 12.9651C20.9502 12.6723 20.9502 12.1974 20.6573 11.9045L20.127 12.4348ZM16.5966 14.9045C16.3037 15.1974 16.3037 15.6723 16.5966 15.9651C16.8895 16.258 17.3644 16.258 17.6573 15.9651L16.5966 14.9045ZM17.6573 8.90448C17.3644 8.61159 16.8895 8.61159 16.5966 8.90448C16.3037 9.19738 16.3037 9.67225 16.5966 9.96514L17.6573 8.90448ZM4.87695 12.4348C4.87695 8.43075 8.12289 5.18481 12.127 5.18481L12.127 3.68481C7.29446 3.68481 3.37695 7.60232 3.37695 12.4348L4.87695 12.4348ZM12.127 19.6848C8.12289 19.6848 4.87695 16.4389 4.87695 12.4348L3.37695 12.4348C3.37695 17.2673 7.29446 21.1848 12.127 21.1848L12.127 19.6848ZM10.127 13.1848L20.127 13.1848L20.127 11.6848L10.127 11.6848L10.127 13.1848ZM19.5966 11.9045L16.5966 14.9045L17.6573 15.9651L20.6573 12.9651L19.5966 11.9045ZM20.6573 11.9045L17.6573 8.90448L16.5966 9.96514L19.5966 12.9651L20.6573 11.9045Z" fill="#F4F4F4"/>
</svg>
