<svg width="64" height="65" viewBox="0 0 64 65" fill="none" xmlns="http://www.w3.org/2000/svg">
<path d="M63.5 32.9674C63.5 50.3644 49.397 64.4674 32 64.4674C14.603 64.4674 0.5 50.3644 0.5 32.9674C0.5 15.5704 14.603 1.46741 32 1.46741C49.397 1.46741 63.5 15.5704 63.5 32.9674Z" stroke="#F4F4F4"/>
<g clip-path="url(#clip0_2575_1078)">
<path d="M41.9998 34.9675C41.2329 34.9674 40.4764 35.1439 39.7887 35.4833C39.1011 35.8228 38.501 36.3161 38.0348 36.925L37.9473 36.8875C38.2911 35.8225 38.3426 34.6848 38.0965 33.5931C37.8504 32.5014 37.3157 31.4958 36.5482 30.6813C35.7807 29.8669 34.8087 29.2734 33.7335 28.9629C32.6584 28.6524 31.5195 28.6363 30.436 28.9163L30.3223 28.7013C31.2303 27.8934 31.8125 26.7822 31.9598 25.5758C32.1071 24.3694 31.8095 23.1508 31.1226 22.1481C30.4357 21.1455 29.4068 20.4278 28.2287 20.1295C27.0505 19.8312 25.804 19.9727 24.7228 20.5276C23.6415 21.0825 22.7997 22.0127 22.3552 23.1438C21.9106 24.2749 21.8938 25.5293 22.3079 26.6719C22.722 27.8145 23.5386 28.7669 24.6046 29.3506C25.6706 29.9343 26.9128 30.1092 28.0985 29.8425L28.1898 30.0138C26.9399 30.9729 26.099 32.3694 25.8361 33.9228C25.5732 35.4763 25.9076 37.0717 26.7723 38.3888L24.416 40.5925C23.351 40.0041 22.1079 39.8242 20.9198 40.0866C19.7316 40.349 18.6799 41.0357 17.9618 42.018C17.2436 43.0002 16.9083 44.2106 17.0187 45.4224C17.129 46.6342 17.6774 47.7641 18.5612 48.6005C19.445 49.4369 20.6034 49.9223 21.8194 49.9658C23.0354 50.0093 24.2255 49.6078 25.1668 48.8367C26.108 48.0656 26.7357 46.9777 26.9324 45.7769C27.129 44.5761 26.8809 43.3448 26.2348 42.3138L28.5323 40.1663C29.7941 41.0097 31.3201 41.3644 32.8246 41.164C34.329 40.9636 35.709 40.2218 36.706 39.0775L37.0548 39.2263C36.9035 40.2356 37.0647 41.267 37.5167 42.1821C37.9687 43.0971 38.69 43.8519 39.5835 44.345C40.4771 44.8382 41.5001 45.0461 42.5153 44.9408C43.5304 44.8356 44.4891 44.4222 45.2624 43.7561C46.0357 43.0901 46.5867 42.2034 46.8414 41.2151C47.096 40.2268 47.0422 39.1842 46.687 38.2274C46.3318 37.2706 45.6923 36.4454 44.8544 35.8627C44.0165 35.2799 43.0204 34.9676 41.9998 34.9675ZM24.4998 24.9675C24.4998 24.4731 24.6464 23.9897 24.9211 23.5786C25.1958 23.1675 25.5863 22.847 26.0431 22.6578C26.4999 22.4686 27.0026 22.4191 27.4875 22.5155C27.9725 22.612 28.4179 22.8501 28.7676 23.1997C29.1172 23.5494 29.3553 23.9948 29.4518 24.4798C29.5482 24.9647 29.4987 25.4674 29.3095 25.9242C29.1203 26.381 28.7998 26.7715 28.3887 27.0462C27.9776 27.3209 27.4942 27.4675 26.9998 27.4675C26.3367 27.4675 25.7009 27.2041 25.232 26.7353C24.7632 26.2664 24.4998 25.6306 24.4998 24.9675ZM21.9998 47.4675C21.5053 47.4675 21.022 47.3209 20.6109 47.0462C20.1997 46.7715 19.8793 46.381 19.6901 45.9242C19.5009 45.4674 19.4514 44.9647 19.5478 44.4798C19.6443 43.9948 19.8824 43.5494 20.232 43.1997C20.5817 42.8501 21.0271 42.612 21.5121 42.5155C21.997 42.4191 22.4997 42.4686 22.9565 42.6578C23.4133 42.847 23.8038 43.1675 24.0785 43.5786C24.3532 43.9897 24.4998 44.4731 24.4998 44.9675C24.4998 45.6306 24.2364 46.2664 23.7676 46.7353C23.2987 47.2041 22.6628 47.4675 21.9998 47.4675ZM31.9998 38.7175C31.1882 38.7159 30.3989 38.451 29.7507 37.9627C29.1024 37.4743 28.6301 36.7888 28.4047 36.0091C28.1792 35.2294 28.2129 34.3976 28.5005 33.6386C28.7881 32.8796 29.3142 32.2345 29.9998 31.8L30.5085 31.5288C31.0197 31.3064 31.5741 31.2008 32.1312 31.2197C32.6884 31.2385 33.2343 31.3814 33.7293 31.6378C34.2243 31.8942 34.6559 32.2578 34.9927 32.702C35.3295 33.1462 35.563 33.66 35.6762 34.2058C35.7894 34.7517 35.7795 35.3159 35.6472 35.8574C35.5149 36.399 35.2636 36.9042 34.9114 37.3364C34.5593 37.7685 34.1152 38.1167 33.6115 38.3557C33.1079 38.5946 32.5573 38.7182 31.9998 38.7175ZM41.9998 42.4675C41.5053 42.4675 41.022 42.3209 40.6109 42.0462C40.1997 41.7715 39.8793 41.381 39.6901 40.9242C39.5009 40.4674 39.4514 39.9647 39.5478 39.4798C39.6443 38.9948 39.8824 38.5494 40.232 38.1997C40.5817 37.8501 41.0271 37.612 41.5121 37.5155C41.997 37.4191 42.4997 37.4686 42.9565 37.6578C43.4133 37.847 43.8038 38.1675 44.0785 38.5786C44.3532 38.9897 44.4998 39.4731 44.4998 39.9675C44.4998 40.6306 44.2364 41.2664 43.7676 41.7353C43.2987 42.2041 42.6628 42.4675 41.9998 42.4675Z" fill="white"/>
</g>
<defs>
<clipPath id="clip0_2575_1078">
<rect width="30" height="30" fill="white" transform="translate(17 19.9674)"/>
</clipPath>
</defs>
</svg>
