<svg width="64" height="65" viewBox="0 0 64 65" fill="none" xmlns="http://www.w3.org/2000/svg">
<path d="M63.5 32.4674C63.5 49.8644 49.397 63.9674 32 63.9674C14.603 63.9674 0.5 49.8644 0.5 32.4674C0.5 15.0704 14.603 0.967407 32 0.967407C49.397 0.967407 63.5 15.0704 63.5 32.4674Z" stroke="#F4F4F4"/>
<g clip-path="url(#clip0_2575_1087)">
<path d="M45.1659 36.1968V34.3033H36.4371C36.4371 36.7534 34.451 38.7396 32.0009 38.7396C29.5508 38.7396 27.5646 36.7534 27.5646 34.3033H18.8359V36.1968L22.6262 36.5982C22.8627 37.5673 23.2455 38.4791 23.7499 39.3088L21.3529 42.2735L24.0307 44.9513L26.9954 42.5543C27.8251 43.0588 28.7369 43.4416 29.7061 43.678L30.1074 47.4683H33.8944L34.2957 43.678C35.2649 43.4416 36.1767 43.0588 37.0064 42.5543L39.9711 44.9513L42.6488 42.2735L40.2519 39.3088C40.7563 38.4791 41.1391 37.5673 41.3755 36.5982L45.1659 36.1968Z" fill="#F4F4F4"/>
<path d="M32.0019 17.4674C30.127 17.4674 28.6016 18.9928 28.6016 20.8678C28.6016 22.7427 30.127 24.2681 32.0019 24.2681C33.8769 24.2681 35.4023 22.7427 35.4023 20.8678C35.4023 18.9928 33.8769 17.4674 32.0019 17.4674Z" fill="#F4F4F4"/>
<path d="M35.6231 25.2096H28.3825C26.7155 25.2097 25.3594 26.5657 25.3594 28.2327V32.546H38.6462V28.2327C38.6462 26.5657 37.2901 25.2096 35.6231 25.2096Z" fill="#F4F4F4"/>
<path d="M24.7883 19.0377C23.1087 19.0377 21.7422 20.4042 21.7422 22.0838C21.7422 23.7499 23.087 25.1072 24.748 25.1289C25.4359 24.3243 26.3851 23.75 27.4635 23.5394C27.6998 23.1066 27.8344 22.6107 27.8344 22.0838C27.8344 20.4042 26.4679 19.0377 24.7883 19.0377Z" fill="#F4F4F4"/>
<path d="M21.5441 25.9752C20.0508 25.9752 18.8359 27.19 18.8359 28.6834V32.5473H23.5997V28.2339C23.5997 27.4174 23.8058 26.6483 24.1682 25.9752H21.5441Z" fill="#F4F4F4"/>
<path d="M39.2141 19.0377C37.5344 19.0377 36.168 20.4042 36.168 22.0838C36.168 22.6106 36.3025 23.1066 36.5389 23.5394C37.6173 23.75 38.5664 24.3243 39.2543 25.1289C40.9154 25.1072 42.2602 23.7499 42.2602 22.0838C42.2602 20.4042 40.8937 19.0377 39.2141 19.0377Z" fill="#F4F4F4"/>
<path d="M42.4562 25.9752H39.832C40.1944 26.6483 40.4006 27.4174 40.4006 28.2339V32.5473H45.1643V28.6833C45.1643 27.19 43.9494 25.9752 42.4562 25.9752Z" fill="#F4F4F4"/>
</g>
<defs>
<clipPath id="clip0_2575_1087">
<rect width="30" height="30" fill="white" transform="translate(17 17.4674)"/>
</clipPath>
</defs>
</svg>
